<svg xmlns="http://www.w3.org/2000/svg" version="1.1" xmlns:xlink="http://www.w3.org/1999/xlink" id="Layer_1" x="0px" y="0px" width="100%" viewBox="0 0 274 144" xml:space="preserve" height="144"><metadata><rdf:RDF xmlns:rdf="http://www.w3.org/1999/02/22-rdf-syntax-ns#" xmlns:dc="http://purl.org/dc/elements/1.1/"><rdf:Description><dc:creator>RealFaviconGenerator</dc:creator><dc:source>https://realfavicongenerator.net</dc:source></rdf:Description></rdf:RDF></metadata><path fill="#CD0002" opacity="1.000000" stroke="none" d=" M1.000000,89.000000   C1.000000,79.312439 1.000000,69.624878 1.386712,59.613594   C2.491548,57.196419 3.279572,55.124016 3.917259,53.006336   C12.799953,23.507990 32.648487,7.001355 63.066463,2.906499   C63.783531,2.809968 64.358665,1.659095 65.000000,1.000000   C75.020897,1.000000 85.041786,1.000000 95.398895,1.396337   C99.239937,2.851751 102.757210,3.871532 106.247414,4.976762   C120.742805,9.566951 127.385216,21.343992 132.816467,34.180420   C132.993149,34.597980 132.365021,35.356068 132.075684,36.158714   C132.397812,36.894051 132.756332,37.426090 133.416870,38.168457   C133.756958,39.591789 133.795029,40.804798 133.787476,42.256256   C134.105408,43.142151 134.468979,43.789597 134.740158,44.708210   C134.466980,44.917809 134.286194,44.856239 134.233978,44.988205   C134.532745,45.440731 134.689575,45.707584 134.896637,46.377739   C133.644867,52.486656 132.217072,58.177052 131.037430,63.918434   C128.544891,76.049622 114.898354,89.104408 103.026993,89.922836   C92.782097,90.629150 82.492195,90.710449 72.219849,90.978233   C67.619110,91.098175 63.012657,90.998520 57.999966,90.998520   C57.999966,87.860130 58.220867,85.369164 57.964985,82.928169   C55.936466,63.577087 65.702545,54.009125 84.729424,55.913433   C87.426620,56.183384 90.348923,55.648308 92.976532,54.854923   C97.758904,53.410923 99.761391,49.728283 98.980042,44.826859   C98.384254,41.089462 94.434975,38.036293 90.046249,38.008347   C84.380173,37.972260 78.706551,38.183929 73.048683,37.965225   C53.283901,37.201237 33.634277,55.506546 36.898407,78.194969   C39.333546,95.121208 54.327789,108.988785 71.302940,108.994690   C115.633430,109.010101 159.963943,108.973221 204.294388,109.012421   C223.487488,109.029388 242.839966,91.107864 239.025131,67.977104   C236.175919,50.701180 221.354126,38.010040 203.873688,37.999634   C195.040924,37.994377 186.198288,38.262489 177.377792,37.933395   C165.454315,37.488525 155.145020,33.422665 148.463577,22.853788   C144.249863,16.188419 143.472198,8.697500 144.000000,1.000000   C165.687561,1.000000 187.375122,1.000000 209.419006,1.412618   C213.051361,2.540811 216.307068,3.371421 219.606598,3.953788   C246.311890,8.667299 267.706238,29.548946 273.085693,56.101997   C273.233978,56.833897 274.340363,57.371700 275.000000,58.000008   C275.000000,67.687561 275.000000,77.375122 274.621033,87.376343   C273.826508,88.516617 273.205627,89.301109 273.026154,90.176140   C270.323456,103.353745 264.262451,115.027611 254.855713,124.327080   C244.221359,134.840164 231.366638,141.904556 215.924667,143.081314   C214.906937,143.158859 213.972946,144.334900 213.000000,145.000000   C161.979111,145.000000 110.958214,145.000000 59.612644,144.612579   C58.622753,143.825653 58.002781,143.206406 57.285709,143.058777   C39.058643,139.305954 23.593037,130.907150 13.592347,114.850006   C9.092184,107.624527 6.508298,99.210106 2.978298,91.369659   C2.571467,90.466042 1.671388,89.784500 1.000000,89.000000  z"></path><path fill="#CD0002" opacity="1.000000" stroke="none" d=" M132.075684,36.158714   C132.410706,36.425846 132.709366,36.896278 133.061432,37.662418   C132.756332,37.426090 132.397812,36.894051 132.075684,36.158714  z"></path><path fill="#CD0002" opacity="1.000000" stroke="none" d=" M133.787476,42.256252   C134.179733,42.597572 134.526367,43.177345 134.852783,44.097080   C134.468979,43.789597 134.105408,43.142151 133.787476,42.256252  z"></path><path fill="#CD0002" opacity="1.000000" stroke="none" d=" M134.233978,44.988205   C134.370056,44.988178 134.634705,45.181690 134.866180,45.678757   C134.689575,45.707584 134.532745,45.440731 134.233978,44.988205  z"></path></svg>